<?xml version="1.0" encoding="utf-8"?>
<!-- Generator: Adobe Illustrator 19.0.0, SVG Export Plug-In . SVG Version: 6.00 Build 0)  -->
<svg version="1.1" xmlns="http://www.w3.org/2000/svg" xmlns:xlink="http://www.w3.org/1999/xlink" x="0px" y="0px" width="18px"
	 height="360px" viewBox="0 0 18 360" style="enable-background:new 0 0 18 360;" xml:space="preserve">
<style type="text/css">
	.st0{display:none;}
	.st1{display:inline;fill:#FFFFFF;}
	.st2{display:inline;opacity:0.5;fill:#FFFFFF;}
	.st3{display:inline;}
	.st4{fill:#0071BC;}
	.st5{fill:#FFFFFF;}
	.st6{display:inline;fill:#333333;}
	.st7{fill:#5D9CEC;}
	.st8{fill:#DDDDDD;}
	.st9{fill:#F7F7F7;}
	.st10{fill:#E5E5E5;}
	.st11{fill:#7F7F7F;}
	.st12{fill:#2A2A2A;}
	.st13{fill:#4C4C4C;}
</style>
<g id="Layer_3" class="st0">
	<path id="XMLID_17_" class="st1" d="M-130,48h-12c-1.1,0-2-0.9-2-2V34c0-1.1,0.9-2,2-2h12c1.1,0,2,0.9,2,2v12
		C-128,47.1-128.9,48-130,48z"/>
	<circle id="XMLID_18_" class="st1" cx="-120" cy="40" r="8"/>
	<circle id="XMLID_37_" class="st2" cx="-100" cy="44" r="4"/>
	<circle id="XMLID_20_" class="st2" cx="-96" cy="16" r="8"/>
	<circle id="XMLID_98_" class="st2" cx="-40" cy="40" r="8"/>
	<rect id="XMLID_21_" x="-160" y="32" class="st1" width="16" height="16"/>
	<rect id="XMLID_22_" x="-104" y="16" class="st2" width="16" height="16"/>
	<rect id="XMLID_96_" x="-88" y="32" class="st2" width="16" height="16"/>
	<rect id="XMLID_97_" x="-72" y="32" class="st2" width="16" height="16"/>
	<rect id="XMLID_99_" x="-56" y="32" class="st2" width="16" height="16"/>
	<rect id="XMLID_23_" x="-96" y="32" class="st2" width="8" height="8"/>
	<rect id="XMLID_34_" x="-104" y="32" class="st2" width="8" height="12"/>
	<rect id="XMLID_35_" x="-100" y="40" class="st2" width="12" height="8"/>
	<circle id="XMLID_122_" class="st2" cx="-100" cy="-12" r="4"/>
	<circle id="XMLID_120_" class="st2" cx="-100" cy="-40" r="4"/>
	<circle id="XMLID_121_" class="st2" cx="-92" cy="-40" r="4"/>
	<circle id="XMLID_123_" class="st2" cx="-40" cy="-12" r="4"/>
	<circle id="XMLID_125_" class="st2" cx="-40" cy="-20" r="4"/>
	<rect id="XMLID_119_" x="-104" y="-40" class="st2" width="16" height="16"/>
	<rect id="XMLID_118_" x="-88" y="-24" class="st2" width="16" height="16"/>
	<rect id="XMLID_116_" x="-72" y="-24" class="st2" width="16" height="16"/>
	<rect id="XMLID_115_" x="-56" y="-24" class="st2" width="16" height="16"/>
	<rect id="XMLID_114_" x="-96" y="-24" class="st2" width="8" height="8"/>
	<rect id="XMLID_126_" x="-100" y="-44" class="st2" width="8" height="8"/>
	<rect id="XMLID_127_" x="-44" y="-20" class="st2" width="8" height="8"/>
	<rect id="XMLID_113_" x="-104" y="-24" class="st2" width="8" height="12"/>
	<rect id="XMLID_112_" x="-100" y="-16" class="st2" width="12" height="8"/>
	<g id="XMLID_173_" class="st3">
		<circle id="XMLID_73_" class="st4" cx="-264" cy="-32" r="64"/>
	</g>
	<g id="XMLID_172_" class="st3">
		<circle id="XMLID_72_" class="st4" cx="-409" cy="-32" r="64"/>
	</g>
	<g id="XMLID_161_" class="st3">
		<circle id="XMLID_171_" class="st5" cx="-420.3" cy="-7.1" r="4"/>
		<circle id="XMLID_170_" class="st5" cx="-437.3" cy="-29.7" r="8"/>
		<circle id="XMLID_169_" class="st5" cx="-380.7" cy="-52.3" r="8"/>
		
			<rect id="XMLID_168_" x="-439.6" y="-32" transform="matrix(0.7071 -0.7071 0.7071 0.7071 -109.4294 -312.2447)" class="st5" width="16" height="16"/>
		
			<rect id="XMLID_167_" x="-417" y="-32" transform="matrix(0.7071 -0.7071 0.7071 0.7071 -102.8019 -296.2447)" class="st5" width="16" height="16"/>
		
			<rect id="XMLID_166_" x="-405.7" y="-43.3" transform="matrix(0.7071 -0.7071 0.7071 0.7071 -91.4882 -291.5584)" class="st5" width="16" height="16"/>
		
			<rect id="XMLID_165_" x="-394.4" y="-54.7" transform="matrix(0.7071 -0.7071 0.7071 0.7071 -80.1745 -286.8722)" class="st5" width="16" height="16"/>
		
			<rect id="XMLID_164_" x="-424.3" y="-22.4" transform="matrix(0.7071 -0.7071 0.7071 0.7071 -110.1157 -302.5879)" class="st5" width="8" height="8"/>
		
			<rect id="XMLID_163_" x="-428.6" y="-17.3" transform="matrix(0.7071 -0.7071 0.7071 0.7071 -116.3583 -303.5168)" class="st5" width="8" height="12"/>
		
			<rect id="XMLID_162_" x="-422.1" y="-15.3" transform="matrix(0.7071 -0.7071 0.7071 0.7071 -113.873 -297.5168)" class="st5" width="12" height="8"/>
	</g>
	<g id="XMLID_107_" class="st3">
		<circle id="XMLID_160_" class="st5" cx="-275.3" cy="-7.9" r="4"/>
		<circle id="XMLID_159_" class="st5" cx="-295.1" cy="-27.7" r="4"/>
		<circle id="XMLID_158_" class="st5" cx="-289.5" cy="-33.3" r="4"/>
		<circle id="XMLID_155_" class="st5" cx="-232.9" cy="-50.3" r="4"/>
		<circle id="XMLID_154_" class="st5" cx="-238.5" cy="-56" r="4"/>
		
			<rect id="XMLID_153_" x="-294.6" y="-32.9" transform="matrix(0.7071 -0.7071 0.7071 0.7071 -66.3741 -209.9569)" class="st5" width="16" height="16"/>
		
			<rect id="XMLID_152_" x="-272" y="-32.9" transform="matrix(0.7071 -0.7071 0.7071 0.7071 -59.7466 -193.9569)" class="st5" width="16" height="16"/>
		
			<rect id="XMLID_151_" x="-260.7" y="-44.2" transform="matrix(0.7071 -0.7071 0.7071 0.7071 -48.4329 -189.2706)" class="st5" width="16" height="16"/>
		
			<rect id="XMLID_149_" x="-249.4" y="-55.5" transform="matrix(0.7071 -0.7071 0.7071 0.7071 -37.1192 -184.5843)" class="st5" width="16" height="16"/>
		
			<rect id="XMLID_147_" x="-279.3" y="-23.2" transform="matrix(0.7071 -0.7071 0.7071 0.7071 -67.0604 -200.3)" class="st5" width="8" height="8"/>
		
			<rect id="XMLID_146_" x="-296.3" y="-34.5" transform="matrix(0.7071 -0.7071 0.7071 0.7071 -64.0309 -215.6137)" class="st5" width="8" height="8"/>
		
			<rect id="XMLID_145_" x="-239.7" y="-57.1" transform="matrix(0.7071 -0.7071 0.7071 0.7071 -31.4624 -182.2412)" class="st5" width="8" height="8"/>
		
			<rect id="XMLID_144_" x="-283.6" y="-18.1" transform="matrix(0.7071 -0.7071 0.7071 0.7071 -73.303 -201.229)" class="st5" width="8" height="12"/>
		
			<rect id="XMLID_143_" x="-277.1" y="-16.1" transform="matrix(0.7071 -0.7071 0.7071 0.7071 -70.8177 -195.229)" class="st5" width="12" height="8"/>
	</g>
</g>
<g id="Layer_2" class="st0">
	<rect id="XMLID_4_" x="-7.7" y="180" class="st6" width="64" height="187"/>
</g>
<g id="Layer_1">
	<g id="XMLID_1_">
		<path id="XMLID_106_" class="st7" d="M9,109c4.4,0,8,3.6,8,8s-3.6,8-8,8s-8-3.6-8-8S4.6,109,9,109 M9,108c-5,0-9,4-9,9s4,9,9,9
			s9-4,9-9S14,108,9,108L9,108z"/>
	</g>
	<g id="XMLID_2_">
		<path id="XMLID_90_" class="st8" d="M9,91c4.4,0,8,3.6,8,8s-3.6,8-8,8s-8-3.6-8-8S4.6,91,9,91 M9,90c-5,0-9,4-9,9s4,9,9,9s9-4,9-9
			S14,90,9,90L9,90z"/>
	</g>
	<g id="XMLID_3_">
		<path id="XMLID_95_" class="st8" d="M15,1c1.1,0,2,0.9,2,2v12c0,1.1-0.9,2-2,2H3c-1.1,0-2-0.9-2-2V3c0-1.1,0.9-2,2-2H15 M15,0H3
			C1.4,0,0,1.4,0,3v12c0,1.6,1.4,3,3,3h12c1.6,0,3-1.4,3-3V3C18,1.4,16.6,0,15,0L15,0z"/>
	</g>
	<g id="XMLID_7_">
		<path id="XMLID_91_" class="st7" d="M15,19c1.1,0,2,0.9,2,2v12c0,1.1-0.9,2-2,2H3c-1.1,0-2-0.9-2-2V21c0-1.1,0.9-2,2-2H15 M15,18
			H3c-1.6,0-3,1.4-3,3v12c0,1.7,1.4,3,3,3h12c1.6,0,3-1.3,3-3V21C18,19.4,16.6,18,15,18L15,18z"/>
	</g>
	<g id="XMLID_15_">
		<path id="XMLID_111_" class="st9" d="M9,161.5c-4.7,0-8.5-3.8-8.5-8.5s3.8-8.5,8.5-8.5s8.5,3.8,8.5,8.5S13.7,161.5,9,161.5z"/>
		<path id="XMLID_83_" class="st10" d="M9,145c4.4,0,8,3.6,8,8s-3.6,8-8,8s-8-3.6-8-8S4.6,145,9,145 M9,144c-5,0-9,4-9,9s4,9,9,9
			s9-4,9-9S14,144,9,144L9,144z"/>
	</g>
	<g id="XMLID_10_">
		<path id="XMLID_78_" class="st9" d="M3,71.5c-1.4,0-2.5-1.1-2.5-2.5V57c0-1.4,1.1-2.5,2.5-2.5h12c1.4,0,2.5,1.1,2.5,2.5v12
			c0,1.4-1.1,2.5-2.5,2.5H3z"/>
		<path id="XMLID_64_" class="st10" d="M15,55c1.1,0,2,0.9,2,2v12c0,1.1-0.9,2-2,2H3c-1.1,0-2-0.9-2-2V57c0-1.1,0.9-2,2-2H15 M15,54
			H3c-1.6,0-3,1.3-3,3v12c0,1.7,1.4,3,3,3h12c1.6,0,3-1.3,3-3V57C18,55.3,16.6,54,15,54L15,54z"/>
	</g>
	<g id="XMLID_27_">
		<g id="XMLID_214_">
			<path id="XMLID_215_" class="st7" d="M9,126c-5,0-9,4-9,9c0,5,4,9,9,9s9-4,9-9C18,130,14,126,9,126z M14,132.8l-1.7,1.7l-1.7,1.7
				L9,137.8L7.8,139c-0.2,0.2-0.6,0.2-0.8,0l-1.2-1.2L4,136.1c-0.2-0.2-0.2-0.6,0-0.8l0.8-0.8h0c0.2-0.2,0.6-0.2,0.8,0l1.7,1.7
				l1.7-1.7l1.7-1.7l1.7-1.7c0.2-0.2,0.6-0.2,0.8,0c0,0,0,0,0,0l0.8,0.8C14.2,132.2,14.2,132.6,14,132.8z"/>
		</g>
	</g>
	<g id="XMLID_19_">
		<g id="XMLID_227_">
			<path id="XMLID_228_" class="st7" d="M15,36H3c-1.7,0-3,1.3-3,3v12c0,1.6,1.3,3,3,3h12c1.7,0,3-1.4,3-3V39C18,37.3,16.7,36,15,36
				z M14,42.8l-1.7,1.7l-1.7,1.7L9,47.8L7.8,49c-0.2,0.2-0.6,0.2-0.8,0l-1.2-1.2L4,46.1c-0.2-0.2-0.2-0.6,0-0.8l0.8-0.8h0
				c0.2-0.2,0.6-0.2,0.8,0l1.7,1.7L9,44.4l1.7-1.7l1.7-1.7c0.2-0.2,0.6-0.2,0.8,0c0,0,0,0,0,0l0.8,0.8C14.2,42.2,14.2,42.6,14,42.8z
				"/>
		</g>
	</g>
	<g id="XMLID_30_">
		<g id="XMLID_198_">
			<path id="XMLID_199_" class="st10" d="M9,162c-5,0-9,4-9,9c0,5,4,9,9,9s9-4,9-9C18,166,14,162,9,162z M14,168.8l-1.7,1.7
				l-1.7,1.7L9,173.8L7.8,175c-0.2,0.2-0.6,0.2-0.8,0l-1.2-1.2L4,172.1c-0.2-0.2-0.2-0.6,0-0.8l0.8-0.8h0c0.2-0.2,0.6-0.2,0.8,0
				l1.7,1.7l1.7-1.7l1.7-1.7l1.7-1.7c0.2-0.2,0.6-0.2,0.8,0c0,0,0,0,0,0l0.8,0.8C14.2,168.2,14.2,168.6,14,168.8z"/>
		</g>
	</g>
	<g id="XMLID_32_">
		<g id="XMLID_193_">
			<path id="XMLID_194_" class="st10" d="M15,72H3c-1.7,0-3,1.3-3,3v12c0,1.6,1.3,3,3,3h12c1.7,0,3-1.4,3-3V75
				C18,73.3,16.7,72,15,72z M14,78.8l-1.7,1.7l-1.7,1.7L9,83.8L7.8,85c-0.2,0.2-0.6,0.2-0.8,0l-1.2-1.2L4,82.1
				c-0.2-0.2-0.2-0.6,0-0.8l0.8-0.8h0c0.2-0.2,0.6-0.2,0.8,0l1.7,1.7L9,80.4l1.7-1.7l1.7-1.7c0.2-0.2,0.6-0.2,0.8,0c0,0,0,0,0,0
				l0.8,0.8C14.2,78.2,14.2,78.6,14,78.8z"/>
		</g>
	</g>
	<g id="XMLID_68_">
		<g id="XMLID_130_">
			<path id="XMLID_131_" class="st7" d="M9,289c4.4,0,8,3.6,8,8s-3.6,8-8,8s-8-3.6-8-8S4.6,289,9,289 M9,288c-5,0-9,4-9,9s4,9,9,9
				s9-4,9-9S14,288,9,288L9,288z"/>
		</g>
	</g>
	<g id="XMLID_67_">
		<path id="XMLID_85_" class="st11" d="M9,271c4.4,0,8,3.6,8,8s-3.6,8-8,8s-8-3.6-8-8S4.6,271,9,271 M9,270c-5,0-9,4-9,9s4,9,9,9
			s9-4,9-9S14,270,9,270L9,270z"/>
	</g>
	<g id="XMLID_66_">
		<path id="XMLID_74_" class="st11" d="M15,181c1.1,0,2,0.9,2,2v12c0,1.1-0.9,2-2,2H3c-1.1,0-2-0.9-2-2v-12c0-1.1,0.9-2,2-2H15
			 M15,180H3c-1.7,0-3,1.4-3,3v12c0,1.6,1.3,3,3,3h12c1.7,0,3-1.4,3-3v-12C18,181.4,16.7,180,15,180L15,180z"/>
	</g>
	<g id="XMLID_65_">
		<g id="XMLID_101_">
			<path id="XMLID_102_" class="st7" d="M15,199c1.1,0,2,0.9,2,2v12c0,1.1-0.9,2-2,2H3c-1.1,0-2-0.9-2-2v-12c0-1.1,0.9-2,2-2H15
				 M15,198H3c-1.7,0-3,1.4-3,3v12c0,1.6,1.3,3,3,3h12c1.7,0,3-1.4,3-3v-12C18,199.4,16.7,198,15,198L15,198z"/>
		</g>
	</g>
	<g id="XMLID_63_">
		<path id="XMLID_81_" class="st12" d="M9,341.5c-4.7,0-8.5-3.8-8.5-8.5s3.8-8.5,8.5-8.5s8.5,3.8,8.5,8.5S13.7,341.5,9,341.5z"/>
		<path id="XMLID_77_" class="st13" d="M9,325c4.4,0,8,3.6,8,8s-3.6,8-8,8s-8-3.6-8-8S4.6,325,9,325 M9,324c-5,0-9,4-9,9s4,9,9,9
			s9-4,9-9S14,324,9,324L9,324z"/>
	</g>
	<g id="XMLID_62_">
		<path id="XMLID_138_" class="st12" d="M3,251.5c-1.4,0-2.5-1.1-2.5-2.5v-12c0-1.4,1.1-2.5,2.5-2.5h12c1.4,0,2.5,1.1,2.5,2.5v12
			c0,1.4-1.1,2.5-2.5,2.5H3z"/>
		<g id="XMLID_134_">
			<path id="XMLID_135_" class="st13" d="M15,235c1.1,0,2,0.9,2,2v12c0,1.1-0.9,2-2,2H3c-1.1,0-2-0.9-2-2v-12c0-1.1,0.9-2,2-2H15
				 M15,234H3c-1.6,0-3,1.4-3,3v12c0,1.6,1.4,3,3,3h12c1.6,0,3-1.4,3-3v-12C18,235.4,16.6,234,15,234L15,234z"/>
		</g>
	</g>
	<g id="XMLID_52_">
		<g id="XMLID_189_">
			<path id="XMLID_190_" class="st7" d="M9,306c-5,0-9,4-9,9c0,5,4,9,9,9s9-4,9-9C18,310,14,306,9,306z M14,312.8l-1.7,1.7l-1.7,1.7
				L9,317.8L7.8,319c-0.2,0.2-0.6,0.2-0.8,0l-1.2-1.2L4,316.1c-0.2-0.2-0.2-0.6,0-0.8l0.8-0.8h0c0.2-0.2,0.6-0.2,0.8,0l1.7,1.7
				l1.7-1.7l1.7-1.7l1.7-1.7c0.2-0.2,0.6-0.2,0.8,0c0,0,0,0,0,0l0.8,0.8C14.2,312.2,14.2,312.6,14,312.8z"/>
		</g>
	</g>
	<g id="XMLID_48_">
		<g id="XMLID_197_">
			<path id="XMLID_202_" class="st7" d="M15,216H3c-1.7,0-3,1.3-3,3v12c0,1.6,1.3,3,3,3h12c1.7,0,3-1.4,3-3v-12
				C18,217.3,16.7,216,15,216z M14,222.8l-1.7,1.7l-1.7,1.7L9,227.8L7.8,229c-0.2,0.2-0.6,0.2-0.8,0l-1.2-1.2L4,226.1
				c-0.2-0.2-0.2-0.6,0-0.8l0.8-0.8h0c0.2-0.2,0.6-0.2,0.8,0l1.7,1.7l1.7-1.7l1.7-1.7l1.7-1.7c0.2-0.2,0.6-0.2,0.8,0c0,0,0,0,0,0
				l0.8,0.8C14.2,222.2,14.2,222.6,14,222.8z"/>
		</g>
	</g>
	<g id="XMLID_36_">
		<g id="XMLID_208_">
			<path id="XMLID_210_" class="st13" d="M9,342c-5,0-9,4-9,9c0,5,4,9,9,9s9-4,9-9C18,346,14,342,9,342z M14,348.8l-1.7,1.7
				l-1.7,1.7L9,353.8L7.8,355c-0.2,0.2-0.6,0.2-0.8,0l-1.2-1.2L4,352.1c-0.2-0.2-0.2-0.6,0-0.8l0.8-0.8h0c0.2-0.2,0.6-0.2,0.8,0
				l1.7,1.7l1.7-1.7l1.7-1.7l1.7-1.7c0.2-0.2,0.6-0.2,0.8,0c0,0,0,0,0,0l0.8,0.8C14.2,348.2,14.2,348.6,14,348.8z"/>
		</g>
	</g>
	<g id="XMLID_5_">
		<g id="XMLID_204_">
			<path id="XMLID_205_" class="st13" d="M15,252H3c-1.7,0-3,1.3-3,3v12c0,1.6,1.3,3,3,3h12c1.7,0,3-1.4,3-3v-12
				C18,253.3,16.7,252,15,252z M14,258.8l-1.7,1.7l-1.7,1.7L9,263.8L7.8,265c-0.2,0.2-0.6,0.2-0.8,0l-1.2-1.2L4,262.1
				c-0.2-0.2-0.2-0.6,0-0.8l0.8-0.8h0c0.2-0.2,0.6-0.2,0.8,0l1.7,1.7l1.7-1.7l1.7-1.7l1.7-1.7c0.2-0.2,0.6-0.2,0.8,0c0,0,0,0,0,0
				l0.8,0.8C14.2,258.2,14.2,258.6,14,258.8z"/>
		</g>
	</g>
</g>
</svg>
